<svg xmlns="http://www.w3.org/2000/svg" viewBox="0 0 850 200" width="850" height="200">
  <!-- IVECO New Logo 2023 - White version with blue accent bar -->
  
  <!-- I - vertical bar -->
  <rect x="0" y="0" width="40" height="200" rx="6" fill="#ffffff"/>
  
  <!-- V - two diagonal shapes meeting at bottom -->
  <polygon points="70,0 115,0 145,200 100,200" fill="#ffffff"/>
  <polygon points="115,0 160,0 190,200 145,200" fill="#ffffff"/>
  
  <!-- E with blue accent bar - hollow E shape with blue middle bar -->
  <path d="M220 0 h130 q15 0 15 15 v25 q0 15 -15 15 h-85 v25 h0 v35 h85 q15 0 15 15 v25 q0 15 -15 15 h-130 q-15 0 -15 -15 v-140 q0 -15 15 -15 z" fill="#ffffff"/>
  <rect x="220" y="0" width="45" height="200" fill="#ffffff"/>
  <rect x="270" y="80" width="95" height="40" rx="6" fill="#3B82F6"/>
  
  <!-- C - open rounded shape -->
  <path d="M400 15 q0 -15 15 -15 h125 q15 0 15 15 v30 q0 10 -10 10 h-15 q-10 0 -10 -10 v-5 q0 -10 -10 -10 h-65 q-15 0 -15 15 v80 q0 15 15 15 h65 q10 0 10 -10 v-5 q0 -10 10 -10 h15 q10 0 10 10 v30 q0 15 -15 15 h-125 q-15 0 -15 -15 v-155 z" fill="#ffffff"/>
  
  <!-- O - rounded rectangle with hole -->
  <path d="M590 15 q0 -15 15 -15 h125 q15 0 15 15 v170 q0 15 -15 15 h-125 q-15 0 -15 -15 v-170 z 
           M630 40 q0 -5 5 -5 h75 q5 0 5 5 v120 q0 5 -5 5 h-75 q-5 0 -5 -5 v-120 z" fill="#ffffff"/>
</svg>